# xmcd
#
# Track frame offsets:
#	150
#	28320
#	48326
#	77095
#	102815
#	128125
#	150619
#	181097
#	199116
#
# Disc length: 3012 seconds
#
# Revision: 1
# Processed by: cddbd v1.5.1PL2 Copyright (c) Steve Scherf et al.
# Submitted via: audiograbber 1.83.01
#
DISCID=6c0bc209
DTITLE=Storm Warning - Breaking Out
DYEAR=2006
DGENRE=Blues
TTITLE0=Bullets
TTITLE1=The Woman ? or the Blues?
TTITLE2=Dangerous Mood
TTITLE3=Long Grey Mare
TTITLE4=Big Man
TTITLE5=Ballad of 64
TTITLE6=Upton Strut
TTITLE7=The Blues are Back
TTITLE8=Whisky Blues
EXTD=
EXTT0=
EXTT1=
EXTT2=
EXTT3=
EXTT4=
EXTT5=
EXTT6=
EXTT7=
EXTT8=
PLAYORDER=
